<?xml version="1.0" standalone="no"?><!DOCTYPE svg PUBLIC "-//W3C//DTD SVG 1.1//EN" "http://www.w3.org/Graphics/SVG/1.1/DTD/svg11.dtd"><svg t="1656406062540" class="icon" viewBox="0 0 1024 1024" version="1.1" xmlns="http://www.w3.org/2000/svg" p-id="1282" xmlns:xlink="http://www.w3.org/1999/xlink" width="200" height="200"><defs><style type="text/css"></style></defs><path d="M597.333333 128v64H192v640h640V426.666667h64v426.666666a42.666667 42.666667 0 0 1-42.666667 42.666667H170.666667a42.666667 42.666667 0 0 1-42.666667-42.666667V170.666667a42.666667 42.666667 0 0 1 42.666667-42.666667h426.666666zM341.333333 405.333333a21.333333 21.333333 0 0 1 21.333334 21.333334v320a21.333333 21.333333 0 0 1-21.333334 21.333333h-21.333333a21.333333 21.333333 0 0 1-21.333333-21.333333V426.666667a21.333333 21.333333 0 0 1 21.333333-21.333334h21.333333z m181.973334-149.333333a21.333333 21.333333 0 0 1 21.333333 21.333333v469.333334a21.333333 21.333333 0 0 1-21.333333 21.333333h-21.333334a21.333333 21.333333 0 0 1-21.333333-21.333333V277.333333a21.333333 21.333333 0 0 1 21.333333-21.333333h21.333334zM704 512a21.333333 21.333333 0 0 1 21.333333 21.333333v213.333334a21.333333 21.333333 0 0 1-21.333333 21.333333h-21.333333a21.333333 21.333333 0 0 1-21.333334-21.333333V533.333333a21.333333 21.333333 0 0 1 21.333334-21.333333h21.333333z m96-426.666667a21.333333 21.333333 0 0 1 21.333333 21.333334v95.978666L917.333333 202.666667a21.333333 21.333333 0 0 1 21.333334 21.333333v21.333333a21.333333 21.333333 0 0 1-21.333334 21.333334l-96-0.021334V362.666667a21.333333 21.333333 0 0 1-21.333333 21.333333h-21.333333a21.333333 21.333333 0 0 1-21.333334-21.333333v-96.021334L661.333333 266.666667a21.333333 21.333333 0 0 1-21.333333-21.333334v-21.333333a21.333333 21.333333 0 0 1 21.333333-21.333333l96-0.021334V106.666667a21.333333 21.333333 0 0 1 21.333334-21.333334h21.333333z" fill="#000000" p-id="1283"></path></svg>