<svg t="1656406166195" class="icon" viewBox="0 0 1024 1024" version="1.1" xmlns="http://www.w3.org/2000/svg" p-id="1735" width="200" height="200"><path d="M874.666667 832a21.333333 21.333333 0 0 1 21.333333 21.333333v21.333334a21.333333 21.333333 0 0 1-21.333333 21.333333H149.333333a21.333333 21.333333 0 0 1-21.333333-21.333333v-21.333334a21.333333 21.333333 0 0 1 21.333333-21.333333h725.333334zM234.666667 405.333333a21.333333 21.333333 0 0 1 21.333333 21.333334v320a21.333333 21.333333 0 0 1-21.333333 21.333333h-21.333334a21.333333 21.333333 0 0 1-21.333333-21.333333V426.666667a21.333333 21.333333 0 0 1 21.333333-21.333334h21.333334z m192-277.333333a21.333333 21.333333 0 0 1 21.333333 21.333333v597.333334a21.333333 21.333333 0 0 1-21.333333 21.333333h-21.333334a21.333333 21.333333 0 0 1-21.333333-21.333333V149.333333a21.333333 21.333333 0 0 1 21.333333-21.333333h21.333334z m192 384a21.333333 21.333333 0 0 1 21.333333 21.333333v213.333334a21.333333 21.333333 0 0 1-21.333333 21.333333h-21.333334a21.333333 21.333333 0 0 1-21.333333-21.333333V533.333333a21.333333 21.333333 0 0 1 21.333333-21.333333h21.333334z m192-192a21.333333 21.333333 0 0 1 21.333333 21.333333v405.333334a21.333333 21.333333 0 0 1-21.333333 21.333333h-21.333334a21.333333 21.333333 0 0 1-21.333333-21.333333V341.333333a21.333333 21.333333 0 0 1 21.333333-21.333333h21.333334z" fill="#000000" p-id="1736"></path></svg>