<?xml version="1.0" standalone="no"?><!DOCTYPE svg PUBLIC "-//W3C//DTD SVG 1.1//EN" "http://www.w3.org/Graphics/SVG/1.1/DTD/svg11.dtd"><svg t="1656574755692" class="icon" viewBox="0 0 1024 1024" version="1.1" xmlns="http://www.w3.org/2000/svg" p-id="22151" xmlns:xlink="http://www.w3.org/1999/xlink" width="200" height="200"><defs><style type="text/css"></style></defs><path d="M432.0256 128h45.5168v651.776h-45.5168V128z m-113.664 0H386.56v651.776H318.3616V128z m-45.4656 0h22.7328v651.776H272.896V128z m-159.232 0h22.784v651.776H113.664V128z m45.5168 0H227.328v651.776H159.232V128z m637.44 0h68.1984v651.776H796.672V128z m-136.448 0h68.1984v651.776h-68.1984V128z m90.9312 0h22.784v651.776h-22.784V128z m-90.9312 698.2656h250.112V896h-250.112v-69.7344zM0 128h68.1984v768H0v-768z m546.4576 698.2656h68.2496V896h-68.2496v-69.7344zM887.552 128h22.7328v651.776h-22.7328V128z m68.2496 0H1024v768h-68.1984v-768z m-363.8272 0h45.4656v651.776h-45.4656V128zM113.664 826.2656h68.1984V896H113.7152v-69.7344z m113.664 0h272.896V896H227.328v-69.7344zM523.776 128h22.7328v651.776h-22.7328V128z" fill="#8a8a8a" p-id="22152"></path></svg>