<?xml version="1.0" standalone="no"?>
<!DOCTYPE svg PUBLIC "-//W3C//DTD SVG 1.1//EN" "http://www.w3.org/Graphics/SVG/1.1/DTD/svg11.dtd">
<svg t="1680618339799" class="icon" viewBox="0 0 2586 1024" version="1.1"
    xmlns="http://www.w3.org/2000/svg" p-id="5989" width="323.25" height="128"
    xmlns:xlink="http://www.w3.org/1999/xlink">
    <path
        d="M2074.033898 0c141.381424 0 269.381424 57.309288 362.044746 149.955254C2528.72461 242.635932 2586.033898 370.618576 2586.033898 512c0 141.381424-57.309288 269.381424-149.955254 362.044746-86.831729 86.831729-204.71322 142.613695-335.559593 149.278373l-8.730034 0.38183L512 1024c-141.381424 0-269.381424-57.309288-362.044746-149.955254C57.309288 781.364068 0 653.381424 0 512c0-141.381424 57.309288-269.381424 149.955254-362.044746C236.786983 63.123525 354.668475 7.341559 485.514847 0.694237l8.730034-0.38183L2074.033898 0z m0 34.711864l-1570.64244 0.069424-8.539119 0.225627a475.726102 475.726102 0 0 0-320.338441 139.506983A475.795525 475.795525 0 0 0 34.711864 512a475.795525 475.795525 0 0 0 139.802034 337.486102 475.760814 475.760814 0 0 0 328.894916 139.715254L512 989.288136l1570.642441-0.069424 8.539118-0.225627a475.726102 475.726102 0 0 0 320.338441-139.506983A475.795525 475.795525 0 0 0 2551.322034 512a475.795525 475.795525 0 0 0-139.802034-337.486102 475.760814 475.760814 0 0 0-328.894915-139.715254L2074.033898 34.711864z"
        fill="#96969E" p-id="5990"></path>
    <path
        d="M1311.778712 537.426441l285.071186 0.017356a19.178305 19.178305 0 1 0 0-38.356611H1311.778712V214.033356a19.178305 19.178305 0 1 0-38.339254 0v285.05383H988.385627a19.178305 19.178305 0 1 0 0 38.356611h285.053831V822.497627a19.178305 19.178305 0 1 0 38.321898 0l0.017356-285.071186z"
        fill="#96969E" p-id="5991"></path>
</svg>